<?xml version="1.0" encoding="UTF-8" standalone="no"?>
<!DOCTYPE svg PUBLIC "-//W3C//DTD SVG 1.1//EN" "http://www.w3.org/Graphics/SVG/1.1/DTD/svg11.dtd">
<svg width="100%" height="100%" viewBox="0 0 128 128" version="1.1" xmlns="http://www.w3.org/2000/svg" xmlns:xlink="http://www.w3.org/1999/xlink" xml:space="preserve" xmlns:serif="http://www.serif.com/" style="fill-rule:evenodd;clip-rule:evenodd;stroke-linecap:round;stroke-linejoin:round;stroke-miterlimit:1.5;">
    <g id="Layer1">
        <g transform="matrix(1.70037,-1.18605,1.18716,1.70196,-132.89,102.66)">
            <circle cx="99.008" cy="25.704" r="10.046"/>
        </g>
        <g transform="matrix(1.27832,-0.00592368,0.00709311,1.28738,-36.0419,-7.01837)">
            <ellipse cx="79.444" cy="54.37" rx="14.503" ry="21.188"/>
        </g>
        <g transform="matrix(1.22078,-0.851522,0.85232,1.22192,-63.6573,53.6042)">
            <ellipse cx="53.875" cy="74.688" rx="18.771" ry="18.884"/>
        </g>
        <g transform="matrix(1.42266,-0.992339,1.04599,1.49958,-86.4365,55.0547)">
            <path d="M100.292,30.952C100.292,30.952 73.476,46.1 80.426,17.658" style="fill:none;stroke:black;stroke-width:1.12px;"/>
        </g>
        <g transform="matrix(0.916596,-0.639347,0.720599,1.03308,-41.0364,3.89081)">
            <path d="M86.091,77.409C86.091,77.409 36.464,107.17 44.924,51.651" style="fill:none;stroke:black;stroke-width:1.68px;"/>
        </g>
        <g transform="matrix(2.4202,-1.68815,2.03742,2.92094,-255.798,54.257)">
            <path d="M67.887,54.339C67.887,54.339 88.13,48.145 93.796,68.615" style="fill:none;stroke:black;stroke-width:0.61px;"/>
        </g>
        <g transform="matrix(1.22078,-0.851522,0.85232,1.22192,-65.4513,51.4253)">
            <path d="M38.503,31.164C38.503,31.164 74.232,68.63 103.313,75.504" style="fill:none;stroke:black;stroke-width:1.34px;"/>
        </g>
        <g transform="matrix(0.827896,-0.577477,0.578018,0.828672,-26.8475,35.288)">
            <ellipse cx="81.332" cy="32.384" rx="3.777" ry="3.815" style="fill:white;"/>
        </g>
        <g transform="matrix(0.827896,-0.577477,0.578018,0.828672,-27.6283,36.1848)">
            <circle cx="93.418" cy="39.975" r="3.852" style="fill:white;"/>
        </g>
    </g>
</svg>
